# xmcd
#
# Track frame offsets:
#	150
#	21117
#	39411
#	55392
#	83425
#	106365
#	128441
#	148616
#	168235
#	185462
#	204769
#	221508
#
# Disc length: 3232 seconds
#
# Revision: 0
# Processed by: cddbd v1.5.2PL0 Copyright (c) Steve Scherf et al.
# Submitted via: EasyCDDAExtractor 11.0.2.1
#
DISCID=950c9e0c
DTITLE=Deana Carter - The Chain (Advance)
DYEAR=2007
DGENRE=Country
TTITLE0=Crying
TTITLE1=Help Me Make It Through The Night
TTITLE2=Love Is Like A Butterfly
TTITLE3=The Boxer
TTITLE4=Lay Lady Lay
TTITLE5=The Weight
TTITLE6=I'm Not Lisa
TTITLE7=Swinging
TTITLE8=On The Road Again
TTITLE9=Good Hearted Woman
TTITLE10=He Still Thinks I Care
TTITLE11=Old Man
EXTD=
EXTT0=
EXTT1=
EXTT2=
EXTT3=
EXTT4=
EXTT5=
EXTT6=
EXTT7=
EXTT8=
EXTT9=
EXTT10=
EXTT11=
PLAYORDER=
